<svg width="219" height="98" viewBox="0 0 219 98" fill="none" xmlns="http://www.w3.org/2000/svg">
<g id="Rectangle 3" filter="url(#filter0_d_0_1)">
<path d="M45 42.1173L112.615 24L178.393 47.9414L110.778 66.0587L45 42.1173Z" fill="#BB3333"/>
<path d="M45.9528 42.1589L112.602 24.3004L177.44 47.8998L110.792 65.7583L45.9528 42.1589Z" stroke="#FF4747"/>
</g>
<path id="Rectangle 2" d="M44.9528 28.1589L111.602 10.3004L176.44 33.8998L109.792 51.7583L44.9528 28.1589Z" fill="#33BB41" stroke="#48FF5B"/>
<g id="Rectangle 1">
<rect width="70" height="70" transform="matrix(0.965926 -0.258819 0.939693 0.34202 43 18.1173)" fill="#3382BB"/>
<rect x="0.952809" y="0.0416005" width="69" height="69" transform="matrix(0.965926 -0.258819 0.939693 0.34202 42.9934 18.3913)" stroke="#46B1FF" stroke-opacity="0.78"/>
</g>
<path id="Gain Log" d="M19.0694 79C18.7882 78.1392 18.4174 77.3679 17.9572 76.6861C17.5055 75.9957 16.9643 75.4077 16.3336 74.9219C15.7115 74.4361 15.0041 74.0653 14.2115 73.8097C13.4189 73.554 12.5495 73.4261 11.6035 73.4261C10.0524 73.4261 8.64188 73.8267 7.37199 74.6278C6.1021 75.429 5.09216 76.6094 4.34216 78.169C3.59216 79.7287 3.21716 81.642 3.21716 83.9091C3.21716 86.1761 3.59642 88.0895 4.35494 89.6491C5.11347 91.2088 6.14046 92.3892 7.43591 93.1903C8.73137 93.9915 10.1888 94.392 11.8081 94.392C13.3081 94.392 14.6291 94.0724 15.7711 93.4332C16.9217 92.7855 17.8166 91.8736 18.4558 90.6974C19.1035 89.5128 19.4274 88.1193 19.4274 86.517L20.399 86.7216H12.524V83.9091H22.4956V86.7216C22.4956 88.8778 22.0353 90.7528 21.1149 92.3466C20.203 93.9403 18.9416 95.1761 17.3308 96.054C15.7285 96.9233 13.8876 97.358 11.8081 97.358C9.48989 97.358 7.45296 96.8125 5.69727 95.7216C3.95012 94.6307 2.58648 93.0795 1.60636 91.0682C0.634774 89.0568 0.148979 86.6705 0.148979 83.9091C0.148979 81.8381 0.425967 79.9759 0.979944 78.3224C1.54244 76.6605 2.33506 75.2457 3.35779 74.0781C4.38051 72.9105 5.59074 72.0156 6.98847 71.3935C8.38619 70.7713 9.92455 70.4602 11.6035 70.4602C12.9842 70.4602 14.2711 70.669 15.4643 71.0866C16.666 71.4957 17.7356 72.0795 18.6731 72.8381C19.6191 73.5881 20.4075 74.4872 21.0382 75.5355C21.6689 76.5753 22.1035 77.7301 22.3422 79H19.0694ZM36.8309 97H33.507L43.1207 70.8182H46.3934L56.007 97H52.6832L44.8593 74.9602H44.6547L36.8309 97ZM38.0582 86.7727H51.4559V89.5852H38.0582V86.7727ZM71.8956 70.8182V97H68.7251V70.8182H71.8956ZM107.654 70.8182V97H104.586L90.3186 76.4432H90.0629V97H86.8925V70.8182H89.9607L104.279 91.4261H104.535V70.8182H107.654ZM133.483 97V70.8182H136.653V94.1875H148.824V97H133.483ZM183.444 83.9091C183.444 86.6705 182.946 89.0568 181.949 91.0682C180.951 93.0795 179.584 94.6307 177.845 95.7216C176.106 96.8125 174.12 97.358 171.888 97.358C169.655 97.358 167.669 96.8125 165.93 95.7216C164.191 94.6307 162.824 93.0795 161.826 91.0682C160.829 89.0568 160.331 86.6705 160.331 83.9091C160.331 81.1477 160.829 78.7614 161.826 76.75C162.824 74.7386 164.191 73.1875 165.93 72.0966C167.669 71.0057 169.655 70.4602 171.888 70.4602C174.12 70.4602 176.106 71.0057 177.845 72.0966C179.584 73.1875 180.951 74.7386 181.949 76.75C182.946 78.7614 183.444 81.1477 183.444 83.9091ZM180.376 83.9091C180.376 81.642 179.997 79.7287 179.238 78.169C178.488 76.6094 177.47 75.429 176.183 74.6278C174.905 73.8267 173.473 73.4261 171.888 73.4261C170.302 73.4261 168.866 73.8267 167.579 74.6278C166.301 75.429 165.282 76.6094 164.524 78.169C163.774 79.7287 163.399 81.642 163.399 83.9091C163.399 86.1761 163.774 88.0895 164.524 89.6491C165.282 91.2088 166.301 92.3892 167.579 93.1903C168.866 93.9915 170.302 94.392 171.888 94.392C173.473 94.392 174.905 93.9915 176.183 93.1903C177.47 92.3892 178.488 91.2088 179.238 89.6491C179.997 88.0895 180.376 86.1761 180.376 83.9091ZM215.313 79C215.032 78.1392 214.661 77.3679 214.201 76.6861C213.749 75.9957 213.208 75.4077 212.577 74.9219C211.955 74.4361 211.248 74.0653 210.455 73.8097C209.662 73.554 208.793 73.4261 207.847 73.4261C206.296 73.4261 204.885 73.8267 203.616 74.6278C202.346 75.429 201.336 76.6094 200.586 78.169C199.836 79.7287 199.461 81.642 199.461 83.9091C199.461 86.1761 199.84 88.0895 200.599 89.6491C201.357 91.2088 202.384 92.3892 203.68 93.1903C204.975 93.9915 206.432 94.392 208.052 94.392C209.552 94.392 210.873 94.0724 212.015 93.4332C213.165 92.7855 214.06 91.8736 214.699 90.6974C215.347 89.5128 215.671 88.1193 215.671 86.517L216.643 86.7216H208.768V83.9091H218.739V86.7216C218.739 88.8778 218.279 90.7528 217.358 92.3466C216.447 93.9403 215.185 95.1761 213.574 96.054C211.972 96.9233 210.131 97.358 208.052 97.358C205.733 97.358 203.697 96.8125 201.941 95.7216C200.194 94.6307 198.83 93.0795 197.85 91.0682C196.878 89.0568 196.393 86.6705 196.393 83.9091C196.393 81.8381 196.67 79.9759 197.224 78.3224C197.786 76.6605 198.579 75.2457 199.601 74.0781C200.624 72.9105 201.834 72.0156 203.232 71.3935C204.63 70.7713 206.168 70.4602 207.847 70.4602C209.228 70.4602 210.515 70.669 211.708 71.0866C212.91 71.4957 213.979 72.0795 214.917 72.8381C215.863 73.5881 216.651 74.4872 217.282 75.5355C217.912 76.5753 218.347 77.7301 218.586 79H215.313Z" fill="white"/>
<defs>
<filter id="filter0_d_0_1" x="38" y="24" width="147.393" height="57.0587" filterUnits="userSpaceOnUse" color-interpolation-filters="sRGB">
<feFlood flood-opacity="0" result="BackgroundImageFix"/>
<feColorMatrix in="SourceAlpha" type="matrix" values="0 0 0 0 0 0 0 0 0 0 0 0 0 0 0 0 0 0 127 0" result="hardAlpha"/>
<feOffset dy="8"/>
<feGaussianBlur stdDeviation="3.5"/>
<feComposite in2="hardAlpha" operator="out"/>
<feColorMatrix type="matrix" values="0 0 0 0 0 0 0 0 0 0 0 0 0 0 0 0 0 0 0.25 0"/>
<feBlend mode="normal" in2="BackgroundImageFix" result="effect1_dropShadow_0_1"/>
<feBlend mode="normal" in="SourceGraphic" in2="effect1_dropShadow_0_1" result="shape"/>
</filter>
</defs>
</svg>
